<svg xmlns="http://www.w3.org/2000/svg" width="1680" height="1340" viewBox="0 0 1680 1340" font-family="Segoe UI, Inter, sans-serif">
<defs>
  <linearGradient id="rampe" x1="0" y1="0" x2="1" y2="0">
    <stop offset="0%" stop-color="#0A555F"/><stop offset="42%" stop-color="#3aa0a8"/>
    <stop offset="72%" stop-color="#F79A28"/><stop offset="100%" stop-color="#ffe9c2"/>
  </linearGradient>
  <!-- PRISE DE DONNEE, ENTREE : 6 x 22, ENTIEREMENT DEHORS, collee au bord -->
  <g id="pinD"><rect x="-6" y="-11" width="6" height="22" rx="2"/></g>
  <!-- PRISE DE DONNEE, SORTIE : la meme, de l'autre cote du bord -->
  <g id="pinS"><rect x="0" y="-11" width="6" height="22" rx="2"/></g>
  <!-- PRISE DE TABLEAU : la meme, CREUSE -->
  <g id="pinT"><rect x="-5" y="-10" width="5" height="20" rx="2" fill="none" stroke-width="2"/></g>
  <!-- PRISE D EXECUTION : rectangle a pointe, 15,5 x 18, 3,7 dehors, 11,8 dedans -->
  <g id="pinX"><path d="M-3.7 -9h9l6.5 9-6.5 9h-9z"/></g>
</defs>

<rect width="1680" height="1340" fill="#17171b"/>

<text font-family="Segoe UI, Inter, sans-serif" x="34" y="40" fill="#e8e8ee" font-size="21" font-weight="600">Planche 01 — nos nœuds dans le style de la référence principale</text>
<text font-family="Segoe UI, Inter, sans-serif" x="34" y="62" fill="#8a8a96" font-size="12.5">v4 — les prises sont enfin DESSINÉES comme le texte les décrit : languette de ratio 1 : 3,7, haute comme la MOITIÉ de l'en-tête, collée au bord et entièrement dehors · seule l'EXÉCUTION chevauche le corps</text>

<!-- ============ 1 · CALCUL, avec + / - ============ -->
<g id="panneau_1_n_ud_de_calcul_entrees_ajoutables">

<text font-family="Segoe UI, Inter, sans-serif" x="34" y="106" fill="#F79A28" font-size="13" font-weight="600">1 · NŒUD DE CALCUL — entrées ajoutables</text>
<g id="objet_p01_01">
  <rect x="40" y="120" width="252" height="176" rx="3" fill="#232329" stroke="#3a3a44"/>
  <path d="M40 123a3 3 0 0 1 3-3h246a3 3 0 0 1 3 3v21H40z" fill="#4a6b8a"/>
  <text font-family="Segoe UI, Inter, sans-serif" x="52" y="139" fill="#eef2f6" font-size="12.5" font-weight="600">Math</text>
  <text font-family="Segoe UI, Inter, sans-serif" x="278" y="139" fill="#9fb4c8" font-size="12" text-anchor="end">?</text>
  <rect x="40" y="144" width="252" height="2.5" fill="#0A555F"/>
  <rect x="50" y="154" width="232" height="20" rx="2" fill="#1b1b20" stroke="#33333c"/>
  <text font-family="Segoe UI, Inter, sans-serif" x="58" y="168" fill="#cfd6de" font-size="11.5">Multiplier</text><text font-family="Segoe UI, Inter, sans-serif" x="274" y="168" fill="#7a7a85" font-size="10" text-anchor="end">▾</text>
  <use href="#pinD" x="40" y="192" fill="#5aa9d6"/>
  <text font-family="Segoe UI, Inter, sans-serif" x="54" y="196" fill="#c8ccd4" font-size="11.5">Valeur</text>
  <rect x="150" y="184" width="96" height="17" rx="2" fill="#1b1b20" stroke="#33333c"/><text font-family="Segoe UI, Inter, sans-serif" x="157" y="196" fill="#cfd6de" font-size="10.5">0.500</text>
  <rect x="252" y="185" width="17" height="14" rx="2" fill="#2a4a63"/><text font-family="Segoe UI, Inter, sans-serif" x="260" y="196" fill="#8fc7e8" font-size="8.5" text-anchor="middle">1.0</text>
  <text font-family="Segoe UI, Inter, sans-serif" x="278" y="197" fill="#6f6f7b" font-size="12" text-anchor="middle">−</text>
  <use href="#pinD" x="40" y="218" fill="#5aa9d6"/>
  <text font-family="Segoe UI, Inter, sans-serif" x="54" y="222" fill="#c8ccd4" font-size="11.5">Valeur</text>
  <rect x="150" y="210" width="96" height="17" rx="2" fill="#1b1b20" stroke="#33333c"/><text font-family="Segoe UI, Inter, sans-serif" x="157" y="222" fill="#cfd6de" font-size="10.5">2.000</text>
  <rect x="252" y="211" width="17" height="14" rx="2" fill="#2a4a63"/><text font-family="Segoe UI, Inter, sans-serif" x="260" y="222" fill="#8fc7e8" font-size="8.5" text-anchor="middle">1.0</text>
  <text font-family="Segoe UI, Inter, sans-serif" x="278" y="223" fill="#6f6f7b" font-size="12" text-anchor="middle">−</text>
  <use href="#pinD" x="40" y="244" fill="#5aa9d6"/>
  <text font-family="Segoe UI, Inter, sans-serif" x="54" y="248" fill="#c8ccd4" font-size="11.5">Valeur</text>
  <text font-family="Segoe UI, Inter, sans-serif" x="246" y="248" fill="#6f6f7b" font-size="10" text-anchor="end">branchée</text>
  <rect x="252" y="237" width="17" height="14" rx="2" fill="#2a4a63"/><text font-family="Segoe UI, Inter, sans-serif" x="260" y="248" fill="#8fc7e8" font-size="8.5" text-anchor="middle">1.0</text>
  <text font-family="Segoe UI, Inter, sans-serif" x="278" y="249" fill="#6f6f7b" font-size="12" text-anchor="middle">−</text>
  <rect x="50" y="258" width="232" height="17" rx="2" fill="#1e1e24" stroke="#33333c" stroke-dasharray="3 3"/>
  <text font-family="Segoe UI, Inter, sans-serif" x="166" y="270" fill="#7a7a85" font-size="10.5" text-anchor="middle">+  ajouter une entrée</text>
  <text font-family="Segoe UI, Inter, sans-serif" x="246" y="292" fill="#c8ccd4" font-size="11.5" text-anchor="end">Résultat</text>
  <rect x="252" y="281" width="17" height="14" rx="2" fill="#2a4a63"/><text font-family="Segoe UI, Inter, sans-serif" x="260" y="292" fill="#8fc7e8" font-size="8.5" text-anchor="middle">1.0</text>
  <use href="#pinS" x="292" y="288" fill="#5aa9d6"/>
</g>
<text font-family="Segoe UI, Inter, sans-serif" x="40" y="318" fill="#6f6f7b" font-size="11">une entrée BRANCHÉE perd son champ de saisie</text>
<text font-family="Segoe UI, Inter, sans-serif" x="40" y="334" fill="#6f6f7b" font-size="11">le − la retire, le + en ajoute</text>

<!-- ============ 2 · INSTRUCTION ============ -->
</g>
<g id="panneau_2_n_ud_d_instruction">

<text font-family="Segoe UI, Inter, sans-serif" x="368" y="106" fill="#F79A28" font-size="13" font-weight="600">2 · NŒUD D'INSTRUCTION</text>
<g id="objet_p01_02">
  <rect x="374" y="120" width="266" height="150" rx="3" fill="#232329" stroke="#3a3a44"/>
  <path d="M374 123a3 3 0 0 1 3-3h260a3 3 0 0 1 3 3v21H374z" fill="#8a5a2a"/>
  <text font-family="Segoe UI, Inter, sans-serif" x="386" y="139" fill="#f6ecdf" font-size="12.5" font-weight="600">Si / Sinon</text>
  <text font-family="Segoe UI, Inter, sans-serif" x="626" y="139" fill="#d5b183" font-size="12" text-anchor="end">?</text>
  <rect x="374" y="144" width="266" height="2.5" fill="#F79A28"/>
  <use href="#pinX" x="374" y="166" fill="#F79A28"/>
  <text font-family="Segoe UI, Inter, sans-serif" x="392" y="170" fill="#e6d2b4" font-size="11.5">Entrer</text>
  <text font-family="Segoe UI, Inter, sans-serif" x="616" y="170" fill="#e6d2b4" font-size="11.5" text-anchor="end">Vrai</text>
  <use href="#pinX" x="640" y="166" fill="#F79A28"/>
  <text font-family="Segoe UI, Inter, sans-serif" x="616" y="192" fill="#e6d2b4" font-size="11.5" text-anchor="end">Faux</text>
  <use href="#pinX" x="640" y="188" fill="#F79A28"/>
  <line x1="382" y1="206" x2="632" y2="206" stroke="#33333c"/>
  <use href="#pinD" x="374" y="228" fill="#b05a8a"/>
  <text font-family="Segoe UI, Inter, sans-serif" x="390" y="232" fill="#c8ccd4" font-size="11.5">Condition</text>
  <rect x="540" y="221" width="60" height="16" rx="2" fill="#1b1b20" stroke="#33333c"/><text font-family="Segoe UI, Inter, sans-serif" x="547" y="233" fill="#cfd6de" font-size="10.5">faux ▾</text>
  <rect x="606" y="222" width="20" height="14" rx="2" fill="#5c2a45"/><text font-family="Segoe UI, Inter, sans-serif" x="616" y="233" fill="#e79ac4" font-size="8.5" text-anchor="middle">V/F</text>
  <text font-family="Segoe UI, Inter, sans-serif" x="390" y="258" fill="#7a7a85" font-size="10.5">l'exécution est au-dessus du filet</text>
</g>
<text font-family="Segoe UI, Inter, sans-serif" x="374" y="292" fill="#6f6f7b" font-size="11">la prise d'exécution est un rectangle À POINTE :</text>
<text font-family="Segoe UI, Inter, sans-serif" x="374" y="308" fill="#6f6f7b" font-size="11">15,5 × 18, dont 3,7 dehors et 11,8 DEDANS —</text>
<text font-family="Segoe UI, Inter, sans-serif" x="374" y="324" fill="#6f6f7b" font-size="11">elle seule chevauche le corps</text>

<!-- ============ 3 · DETAIL DES PRISES ============ -->
</g>
<g id="panneau_3_les_prises_la_donnee_reste_dehors">

<text font-family="Segoe UI, Inter, sans-serif" x="700" y="106" fill="#F79A28" font-size="13" font-weight="600">3 · LES PRISES — la DONNÉE reste DEHORS</text>
<g id="objet_p01_03">
  <rect x="706" y="122" width="164" height="128" rx="3" fill="#232329" stroke="#3a3a44"/>
  <rect x="706" y="122" width="164" height="21" rx="3" fill="#2a6b6b"/>
  <text font-family="Segoe UI, Inter, sans-serif" x="716" y="137" fill="#e2f2f2" font-size="11.5" font-weight="600">détail</text>
  <rect x="706" y="143" width="164" height="2.5" fill="#0A555F"/>
  <use href="#pinD" x="706" y="172" fill="#5aa9d6"/><text font-family="Segoe UI, Inter, sans-serif" x="722" y="176" fill="#c8ccd4" font-size="11">donnée</text>
  <use href="#pinX" x="706" y="200" fill="#F79A28"/><text font-family="Segoe UI, Inter, sans-serif" x="732" y="204" fill="#c8ccd4" font-size="11">exécution</text>
  <use href="#pinT" x="706" y="228" stroke="#5aa9d6"/><text font-family="Segoe UI, Inter, sans-serif" x="722" y="232" fill="#c8ccd4" font-size="11">tableau (creuse)</text>
</g>
<text font-family="Segoe UI, Inter, sans-serif" x="706" y="272" fill="#6f6f7b" font-size="11">donnée : 6 × 22 — ratio 1 : 3,7, rayon 2, hauteur =</text>
<text font-family="Segoe UI, Inter, sans-serif" x="706" y="288" fill="#6f6f7b" font-size="11">MOITIÉ de l'en-tête (mesuré 0,500 sur ton fichier)</text>
<text font-family="Segoe UI, Inter, sans-serif" x="706" y="304" fill="#6f6f7b" font-size="11">la couleur EST le type · le fil part de son centre</text>

<!-- ============ 4 · PASTILLES ============ -->
</g>
<g id="panneau_4_pastilles_de_type_couleur_et_glyphe">

<text font-family="Segoe UI, Inter, sans-serif" x="700" y="330" fill="#F79A28" font-size="13" font-weight="600">4 · PASTILLES DE TYPE — couleur ET glyphe</text>
<g id="objet_p01_04" font-size="8.5" text-anchor="middle">
  <rect x="706" y="340" width="19" height="15" rx="2" fill="#2a4a63"/><text font-family="Segoe UI, Inter, sans-serif" x="715" y="351" fill="#8fc7e8">1.0</text>
  <rect x="733" y="340" width="19" height="15" rx="2" fill="#2a4463"/><text font-family="Segoe UI, Inter, sans-serif" x="742" y="351" fill="#9fb0e8">123</text>
  <rect x="760" y="340" width="19" height="15" rx="2" fill="#5c2a45"/><text font-family="Segoe UI, Inter, sans-serif" x="769" y="351" fill="#e79ac4">V/F</text>
  <rect x="787" y="340" width="19" height="15" rx="2" fill="#2a5c46"/><text font-family="Segoe UI, Inter, sans-serif" x="796" y="351" fill="#8fe0b4">XY</text>
  <rect x="814" y="340" width="19" height="15" rx="2" fill="#2a6b3f"/><text font-family="Segoe UI, Inter, sans-serif" x="823" y="351" fill="#9fe8a8">XYZ</text>
  <rect x="841" y="340" width="19" height="15" rx="2" fill="#6b5a2a"/><text font-family="Segoe UI, Inter, sans-serif" x="850" y="351" fill="#e8d08f">RGB</text>
  <rect x="868" y="340" width="19" height="15" rx="2" fill="#5a3a6b"/><text font-family="Segoe UI, Inter, sans-serif" x="877" y="351" fill="#cfa8e8">txt</text>
  <rect x="895" y="340" width="19" height="15" rx="2" fill="#2a5c5c"/><text font-family="Segoe UI, Inter, sans-serif" x="904" y="351" fill="#8fd8d8">bsdf</text>
  <rect x="922" y="340" width="19" height="15" rx="2" fill="#6b3a2a"/><text font-family="Segoe UI, Inter, sans-serif" x="931" y="351" fill="#e8a88f">obj</text>
  <rect x="949" y="340" width="19" height="15" rx="2" fill="#3a3a44"/><text font-family="Segoe UI, Inter, sans-serif" x="958" y="351" fill="#b8b8c4">?</text>
</g>

<!-- ============ 5 · DONNEE COMPOSEE, PLIEE / DEPLIEE ============ -->
</g>
<g id="panneau_5_donnee_composee_pliee_puis_depliee">

<text font-family="Segoe UI, Inter, sans-serif" x="1000" y="106" fill="#F79A28" font-size="13" font-weight="600">5 · DONNÉE COMPOSÉE — pliée, puis dépliée</text>
<g id="objet_p01_05">
  <rect x="1006" y="120" width="248" height="60" rx="3" fill="#232329" stroke="#3a3a44"/>
  <rect x="1006" y="120" width="248" height="21" rx="3" fill="#0A555F"/>
  <text font-family="Segoe UI, Inter, sans-serif" x="1016" y="135" fill="#dff0f2" font-size="11.5" font-weight="600">Mapping</text>
  <rect x="1006" y="141" width="248" height="2.5" fill="#0A555F"/>
  <use href="#pinD" x="1006" y="162" fill="#9fe8a8"/>
  <text font-family="Segoe UI, Inter, sans-serif" x="1022" y="160" fill="#c8ccd4" font-size="11.5">Position</text>
  <text font-family="Segoe UI, Inter, sans-serif" x="1022" y="172" fill="#6f6f7b" font-size="9.5">▸ déplier</text>
  <rect x="1104" y="154" width="42" height="16" rx="2" fill="#1b1b20" stroke="#33333c"/><text font-family="Segoe UI, Inter, sans-serif" x="1110" y="166" fill="#cfd6de" font-size="10">0.0</text>
  <rect x="1150" y="154" width="42" height="16" rx="2" fill="#1b1b20" stroke="#33333c"/><text font-family="Segoe UI, Inter, sans-serif" x="1156" y="166" fill="#cfd6de" font-size="10">1.0</text>
  <rect x="1196" y="154" width="42" height="16" rx="2" fill="#1b1b20" stroke="#33333c"/><text font-family="Segoe UI, Inter, sans-serif" x="1202" y="166" fill="#cfd6de" font-size="10">0.0</text>
</g>
<g id="objet_p01_06">
  <rect x="1006" y="196" width="248" height="98" rx="3" fill="#232329" stroke="#3a3a44"/>
  <rect x="1006" y="196" width="248" height="21" rx="3" fill="#0A555F"/>
  <text font-family="Segoe UI, Inter, sans-serif" x="1016" y="211" fill="#dff0f2" font-size="11.5" font-weight="600">Mapping</text>
  <rect x="1006" y="217" width="248" height="2.5" fill="#0A555F"/>
  <use href="#pinD" x="1006" y="240" fill="#9fe8a8"/>
  <text font-family="Segoe UI, Inter, sans-serif" x="1022" y="244" fill="#c8ccd4" font-size="11.5">Position</text>
  <text font-family="Segoe UI, Inter, sans-serif" x="1240" y="244" fill="#6f6f7b" font-size="9.5" text-anchor="end">▾ replier</text>
  <text font-family="Segoe UI, Inter, sans-serif" x="1040" y="264" fill="#a8acb6" font-size="11">X</text>
  <rect x="1104" y="254" width="134" height="15" rx="2" fill="#1b1b20" stroke="#33333c"/><text font-family="Segoe UI, Inter, sans-serif" x="1110" y="265" fill="#cfd6de" font-size="10">0.0</text>
  <text font-family="Segoe UI, Inter, sans-serif" x="1040" y="280" fill="#a8acb6" font-size="11">Y</text>
  <rect x="1104" y="270" width="134" height="15" rx="2" fill="#1b1b20" stroke="#33333c"/><text font-family="Segoe UI, Inter, sans-serif" x="1110" y="281" fill="#cfd6de" font-size="10">1.0</text>
  <text font-family="Segoe UI, Inter, sans-serif" x="1040" y="296" fill="#a8acb6" font-size="11">Z</text>
  <rect x="1104" y="286" width="134" height="15" rx="2" fill="#1b1b20" stroke="#33333c"/><text font-family="Segoe UI, Inter, sans-serif" x="1110" y="297" fill="#cfd6de" font-size="10">0.0</text>
</g>
<text font-family="Segoe UI, Inter, sans-serif" x="1006" y="318" fill="#6f6f7b" font-size="11">⚠ UNE seule prise dans les deux cas — c'est de l'AFFICHAGE.</text>
<text font-family="Segoe UI, Inter, sans-serif" x="1006" y="334" fill="#6f6f7b" font-size="11">Séparer en trois PRISES est autre chose (voir CATALOGUE §5ter)</text>

<!-- ============ 6 · RAMPE DE COULEUR ============ -->
</g>
<g id="panneau_6_rampe_de_couleur_le_panneau_des_arrets">

<text font-family="Segoe UI, Inter, sans-serif" x="34" y="368" fill="#F79A28" font-size="13" font-weight="600">6 · RAMPE DE COULEUR — le panneau des arrêts</text>
<g id="objet_p01_07">
  <rect x="40" y="382" width="300" height="258" rx="3" fill="#232329" stroke="#3a3a44"/>
  <rect x="40" y="382" width="300" height="21" rx="3" fill="#8a6b2a"/>
  <text font-family="Segoe UI, Inter, sans-serif" x="52" y="397" fill="#f6eddc" font-size="12.5" font-weight="600">Rampe de couleur</text>
  <text font-family="Segoe UI, Inter, sans-serif" x="326" y="397" fill="#d8c08a" font-size="12" text-anchor="end">?</text>
  <rect x="40" y="403" width="300" height="2.5" fill="#0A555F"/>
  <use href="#pinD" x="40" y="424" fill="#5aa9d6"/>
  <text font-family="Segoe UI, Inter, sans-serif" x="56" y="428" fill="#c8ccd4" font-size="11.5">Facteur</text>
  <rect x="216" y="416" width="80" height="16" rx="2" fill="#1b1b20" stroke="#33333c"/><text font-family="Segoe UI, Inter, sans-serif" x="222" y="428" fill="#cfd6de" font-size="10">0.500</text>
  <rect x="302" y="417" width="17" height="14" rx="2" fill="#2a4a63"/><text font-family="Segoe UI, Inter, sans-serif" x="310" y="428" fill="#8fc7e8" font-size="8.5" text-anchor="middle">1.0</text>
  <rect x="56" y="444" width="264" height="18" rx="2" fill="url(#rampe)" stroke="#33333c"/>
  <g id="objet_p01_08" stroke="#ffffff" stroke-width="1"><path d="M56 471l6-9h-12z" fill="#0A555F"/><path d="M175 471l6-9h-12z" fill="#3aa0a8"/><path d="M320 471l6-9h-12z" fill="#F79A28"/></g>
  <text font-family="Segoe UI, Inter, sans-serif" x="56" y="486" fill="#6f6f7b" font-size="9">les poignées portent la couleur de leur arrêt</text>
  <line x1="52" y1="494" x2="328" y2="494" stroke="#33333c"/>
  <text font-family="Segoe UI, Inter, sans-serif" x="56" y="514" fill="#c8ccd4" font-size="11">arrêt 1</text>
  <rect x="112" y="503" width="52" height="16" rx="2" fill="#1b1b20" stroke="#33333c"/><text font-family="Segoe UI, Inter, sans-serif" x="118" y="515" fill="#cfd6de" font-size="10">0.000</text>
  <rect x="172" y="503" width="120" height="16" fill="#0A555F" stroke="#5a5a64"/>
  <text font-family="Segoe UI, Inter, sans-serif" x="310" y="515" fill="#6f6f7b" font-size="12" text-anchor="middle">−</text>
  <text font-family="Segoe UI, Inter, sans-serif" x="56" y="537" fill="#c8ccd4" font-size="11">arrêt 2</text>
  <rect x="112" y="526" width="52" height="16" rx="2" fill="#1b1b20" stroke="#33333c"/><text font-family="Segoe UI, Inter, sans-serif" x="118" y="538" fill="#cfd6de" font-size="10">0.450</text>
  <rect x="172" y="526" width="120" height="16" fill="#3aa0a8" stroke="#5a5a64"/>
  <text font-family="Segoe UI, Inter, sans-serif" x="310" y="538" fill="#6f6f7b" font-size="12" text-anchor="middle">−</text>
  <text font-family="Segoe UI, Inter, sans-serif" x="56" y="560" fill="#c8ccd4" font-size="11">arrêt 3</text>
  <rect x="112" y="549" width="52" height="16" rx="2" fill="#1b1b20" stroke="#33333c"/><text font-family="Segoe UI, Inter, sans-serif" x="118" y="561" fill="#cfd6de" font-size="10">1.000</text>
  <rect x="172" y="549" width="120" height="16" fill="#F79A28" stroke="#5a5a64"/>
  <text font-family="Segoe UI, Inter, sans-serif" x="310" y="561" fill="#6f6f7b" font-size="12" text-anchor="middle">−</text>
  <rect x="56" y="572" width="236" height="17" rx="2" fill="#1e1e24" stroke="#33333c" stroke-dasharray="3 3"/>
  <text font-family="Segoe UI, Inter, sans-serif" x="174" y="584" fill="#7a7a85" font-size="10.5" text-anchor="middle">+  ajouter un arrêt</text>
  <text font-family="Segoe UI, Inter, sans-serif" x="56" y="604" fill="#6f6f7b" font-size="10">3 / 32 arrêts</text>
  <rect x="56" y="610" width="110" height="17" rx="2" fill="#1b1b20" stroke="#33333c"/>
  <text font-family="Segoe UI, Inter, sans-serif" x="64" y="622" fill="#cfd6de" font-size="10.5">Linéaire ▾</text>
  <text font-family="Segoe UI, Inter, sans-serif" x="292" y="622" fill="#c8ccd4" font-size="11.5" text-anchor="end">Couleur</text>
  <rect x="298" y="611" width="20" height="14" rx="2" fill="#6b5a2a"/><text font-family="Segoe UI, Inter, sans-serif" x="308" y="622" fill="#e8d08f" font-size="8.5" text-anchor="middle">RGB</text>
  <use href="#pinS" x="340" y="618" fill="#d8c08a"/>
</g>
<text font-family="Segoe UI, Inter, sans-serif" x="40" y="662" fill="#e0a96c" font-size="11">⚠ les rangées d'arrêt n'ont AUCUNE prise — un arrêt</text>
<text font-family="Segoe UI, Inter, sans-serif" x="40" y="678" fill="#6f6f7b" font-size="11">n'est pas branchable. Deux prises en tout : Facteur, Couleur.</text>
<text font-family="Segoe UI, Inter, sans-serif" x="40" y="694" fill="#6f6f7b" font-size="11">Le panneau est donc le SEUL moyen de les régler (§17 C1).</text>
<text font-family="Segoe UI, Inter, sans-serif" x="40" y="710" fill="#6f6f7b" font-size="11">À 55 % les poignées et le panneau partent, la BARRE reste.</text>

<!-- ============ 7 · PRINCIPLED ============ -->
</g>
<g id="panneau_7_vingt_entrees_sections_repliables">

<text font-family="Segoe UI, Inter, sans-serif" x="380" y="368" fill="#F79A28" font-size="13" font-weight="600">7 · VINGT ENTRÉES — sections repliables</text>
<g id="objet_p01_09">
  <rect x="386" y="382" width="284" height="300" rx="3" fill="#232329" stroke="#3a3a44"/>
  <rect x="386" y="382" width="284" height="21" rx="3" fill="#2a6b6b"/>
  <text font-family="Segoe UI, Inter, sans-serif" x="398" y="397" fill="#e2f2f2" font-size="12.5" font-weight="600">Principled BSDF</text>
  <text font-family="Segoe UI, Inter, sans-serif" x="656" y="397" fill="#8fbcbc" font-size="12" text-anchor="end">?</text>
  <rect x="386" y="403" width="284" height="2.5" fill="#0A555F"/>
  <text font-family="Segoe UI, Inter, sans-serif" x="628" y="428" fill="#c8ccd4" font-size="11.5" text-anchor="end">Surface</text>
  <rect x="634" y="417" width="22" height="14" rx="2" fill="#2a5c5c"/><text font-family="Segoe UI, Inter, sans-serif" x="645" y="428" fill="#8fd8d8" font-size="8.5" text-anchor="middle">bsdf</text>
  <use href="#pinS" x="670" y="424" fill="#7fd0d0"/>
  <use href="#pinD" x="386" y="452" fill="#d8c08a"/><text font-family="Segoe UI, Inter, sans-serif" x="402" y="456" fill="#c8ccd4" font-size="11.5">Couleur de base</text>
  <rect x="546" y="445" width="110" height="16" rx="2" fill="#c9b28f" stroke="#33333c"/>
  <use href="#pinD" x="386" y="476" fill="#5aa9d6"/><text font-family="Segoe UI, Inter, sans-serif" x="402" y="480" fill="#c8ccd4" font-size="11.5">Métallique</text>
  <rect x="546" y="469" width="110" height="16" rx="2" fill="#1b1b20" stroke="#33333c"/><text font-family="Segoe UI, Inter, sans-serif" x="552" y="481" fill="#cfd6de" font-size="10">0.000</text>
  <use href="#pinD" x="386" y="500" fill="#5aa9d6"/><text font-family="Segoe UI, Inter, sans-serif" x="402" y="504" fill="#c8ccd4" font-size="11.5">Rugosité</text>
  <rect x="546" y="493" width="110" height="16" rx="2" fill="#1b1b20" stroke="#33333c"/><text font-family="Segoe UI, Inter, sans-serif" x="552" y="505" fill="#cfd6de" font-size="10">0.500</text>
  <use href="#pinD" x="386" y="524" fill="#9fe8a8"/><text font-family="Segoe UI, Inter, sans-serif" x="402" y="528" fill="#c8ccd4" font-size="11.5">Normale</text>
  <text font-family="Segoe UI, Inter, sans-serif" x="656" y="528" fill="#6f6f7b" font-size="10" text-anchor="end">défaut</text>
  <line x1="396" y1="542" x2="660" y2="542" stroke="#33333c"/>
  <text font-family="Segoe UI, Inter, sans-serif" x="402" y="562" fill="#a8acb6" font-size="11.5">▸  Diffusion sous-cutanée</text>
  <text font-family="Segoe UI, Inter, sans-serif" x="402" y="584" fill="#a8acb6" font-size="11.5">▸  Spéculaire</text>
  <text font-family="Segoe UI, Inter, sans-serif" x="402" y="606" fill="#a8acb6" font-size="11.5">▾  Émission</text>
  <use href="#pinD" x="386" y="628" fill="#d8c08a"/><text font-family="Segoe UI, Inter, sans-serif" x="412" y="632" fill="#c8ccd4" font-size="11.5">Couleur</text>
  <rect x="546" y="621" width="110" height="16" rx="2" fill="#1a1a1f" stroke="#33333c"/>
  <use href="#pinD" x="386" y="652" fill="#5aa9d6"/><text font-family="Segoe UI, Inter, sans-serif" x="412" y="656" fill="#c8ccd4" font-size="11.5">Intensité</text>
  <rect x="546" y="645" width="110" height="16" rx="2" fill="#1b1b20" stroke="#33333c"/><text font-family="Segoe UI, Inter, sans-serif" x="552" y="657" fill="#cfd6de" font-size="10">1.000</text>
  <text font-family="Segoe UI, Inter, sans-serif" x="402" y="676" fill="#a8acb6" font-size="11.5">▸  Voile · Vernis · Film mince</text>
</g>
<text font-family="Segoe UI, Inter, sans-serif" x="386" y="704" fill="#6f6f7b" font-size="11">⚠ une section repliée qui contient une prise</text>
<text font-family="Segoe UI, Inter, sans-serif" x="386" y="720" fill="#6f6f7b" font-size="11">BRANCHÉE reste ouverte — sinon le fil</text>
<text font-family="Segoe UI, Inter, sans-serif" x="386" y="736" fill="#6f6f7b" font-size="11">pointerait vers rien</text>

<!-- ============ 8 · FILS ============ -->
</g>
<g id="panneau_8_les_fils">

<text font-family="Segoe UI, Inter, sans-serif" x="706" y="368" fill="#F79A28" font-size="13" font-weight="600">8 · LES FILS</text>
<g id="objet_p01_10" fill="none" stroke-width="2">
  <path d="M716 398c40 0 40 -20 80 -20" stroke="#5aa9d6"/>
  <text font-family="Segoe UI, Inter, sans-serif" x="812" y="382" fill="#8a8a96" font-size="11">donnée — couleur du TYPE</text>
  <path d="M716 428c40 0 40 -20 80 -20" stroke="#F79A28" stroke-width="3.5"/>
  <text font-family="Segoe UI, Inter, sans-serif" x="812" y="412" fill="#8a8a96" font-size="11">exécution — plus ÉPAIS, toujours orange</text>
  <path d="M716 456c40 0 40 -20 80 -20" stroke="#5aa9d6" stroke-width="1.4"/>
  <path d="M716 462c40 0 40 -20 80 -20" stroke="#5aa9d6" stroke-width="1.4"/>
  <text font-family="Segoe UI, Inter, sans-serif" x="812" y="442" fill="#8a8a96" font-size="11">tableau — DOUBLÉ</text>
  <path d="M716 492c40 0 40 -20 80 -20" stroke="#7a7a85" stroke-dasharray="5 4"/>
  <text font-family="Segoe UI, Inter, sans-serif" x="812" y="472" fill="#8a8a96" font-size="11">en cours de tirage — pointillé</text>
</g>
<text font-family="Segoe UI, Inter, sans-serif" x="706" y="524" fill="#c8ccd4" font-size="11.5">pendant le tirage :</text>
<g id="objet_p01_11">
  <use href="#pinD" x="722" y="550" fill="#5aa9d6"/><rect x="713.5" y="536.5" width="11" height="27" rx="3" fill="none" stroke="#e8e8ee" stroke-width="1.5"/>
  <text font-family="Segoe UI, Inter, sans-serif" x="742" y="554" fill="#9fe8a8" font-size="11">compatible — halo clair</text>
  <use href="#pinD" x="722" y="578" fill="#3a3a44"/>
  <text font-family="Segoe UI, Inter, sans-serif" x="742" y="582" fill="#6f6f7b" font-size="11">incompatible — éteinte</text>
  <use href="#pinD" x="722" y="606" fill="#5aa9d6" opacity="0.35"/>
  <text font-family="Segoe UI, Inter, sans-serif" x="742" y="610" fill="#6f6f7b" font-size="11">convertible — demi-teinte</text>
</g>

<!-- ============ 9 · ERREUR ============ -->
</g>
<g id="panneau_9_n_ud_en_erreur">

<text font-family="Segoe UI, Inter, sans-serif" x="706" y="654" fill="#F79A28" font-size="13" font-weight="600">9 · NŒUD EN ERREUR</text>
<g id="objet_p01_12">
  <rect x="712" y="668" width="252" height="92" rx="3" fill="#2a2024" stroke="#c4483a" stroke-width="1.6"/>
  <rect x="712" y="668" width="252" height="21" rx="3" fill="#8a3a30"/>
  <text font-family="Segoe UI, Inter, sans-serif" x="724" y="683" fill="#f6dedb" font-size="12.5" font-weight="600">Image Texture</text>
  <text font-family="Segoe UI, Inter, sans-serif" x="950" y="683" fill="#f0b0a8" font-size="13" text-anchor="end">!</text>
  <rect x="712" y="689" width="252" height="2.5" fill="#c4483a"/>
  <text font-family="Segoe UI, Inter, sans-serif" x="724" y="710" fill="#f0b0a8" font-size="10.5">fichier introuvable :</text>
  <text font-family="Segoe UI, Inter, sans-serif" x="724" y="726" fill="#f0b0a8" font-size="10.5">textures/mur_albedo.png</text>
  <text font-family="Segoe UI, Inter, sans-serif" x="724" y="748" fill="#8a8a96" font-size="9.5">la raison est LISIBLE sans survol</text>
</g>

<!-- ============ 10 · CADRE ============ -->
</g>
<g id="panneau_10_le_cadre_et_la_selection">

<text font-family="Segoe UI, Inter, sans-serif" x="1000" y="368" fill="#F79A28" font-size="13" font-weight="600">10 · LE CADRE ET LA SÉLECTION</text>
<g id="objet_p01_13">
  <rect x="1006" y="384" width="330" height="178" rx="6" fill="#4E9A5A" opacity="0.08"/>
  <rect x="1006" y="384" width="330" height="178" rx="6" fill="none" stroke="#4E9A5A" stroke-width="1.5"/>
  <path d="M1006 390a6 6 0 0 1 6-6h318a6 6 0 0 1 6 6v14H1006z" fill="#4E9A5A"/>
  <text font-family="Segoe UI, Inter, sans-serif" x="1016" y="399" fill="#10240F" font-size="12.5" font-weight="600">Habillage du mur</text>
  <text font-family="Segoe UI, Inter, sans-serif" x="1326" y="399" fill="#10240F" font-size="11" text-anchor="end">3 nœuds</text>
  <rect x="1014" y="412" width="314" height="142" rx="4" fill="none" stroke="#4E9A5A" stroke-width="1" stroke-dasharray="4 4" opacity="0.7"/>
  <g id="objet_p01_14">
    <rect x="1032" y="428" width="126" height="54" rx="3" fill="#232329" stroke="#e8e8ee" stroke-width="1.6"/>
    <rect x="1032" y="428" width="126" height="17" rx="3" fill="#8a6b2a"/>
    <text font-family="Segoe UI, Inter, sans-serif" x="1042" y="441" fill="#f6eddc" font-size="10.5" font-weight="600">Bruit</text>
    <rect x="1032" y="445" width="126" height="2" fill="#0A555F"/>
    <use href="#pinD" x="1032" y="464" fill="#9fe8a8"/><use href="#pinS" x="1158" y="464" fill="#5aa9d6"/>
  </g>
  <g id="objet_p01_15">
    <rect x="1192" y="428" width="126" height="54" rx="3" fill="#232329" stroke="#e8e8ee" stroke-width="1.6"/>
    <rect x="1192" y="428" width="126" height="17" rx="3" fill="#8a6b2a"/>
    <text font-family="Segoe UI, Inter, sans-serif" x="1202" y="441" fill="#f6eddc" font-size="10.5" font-weight="600">Rampe</text>
    <rect x="1192" y="445" width="126" height="2" fill="#0A555F"/>
    <use href="#pinD" x="1192" y="464" fill="#5aa9d6"/><use href="#pinS" x="1318" y="464" fill="#d8c08a"/>
  </g>
  <path d="M1164 464h28" fill="none" stroke="#5aa9d6" stroke-width="2"/>
  <g id="objet_p01_16">
    <rect x="1032" y="498" width="126" height="44" rx="3" fill="#232329" stroke="#3a3a44"/>
    <rect x="1032" y="498" width="126" height="17" rx="3" fill="#4a6b8a"/>
    <text font-family="Segoe UI, Inter, sans-serif" x="1042" y="511" fill="#eef2f6" font-size="10.5" font-weight="600">Math</text>
    <rect x="1032" y="515" width="126" height="2" fill="#0A555F"/>
  </g>
</g>
<text font-family="Segoe UI, Inter, sans-serif" x="1006" y="582" fill="#7fb77e" font-size="11">✅ AUCUN nœud ne porte la teinte du cadre — option A, tranchée le 22/08.</text>
<text font-family="Segoe UI, Inter, sans-serif" x="1006" y="598" fill="#6f6f7b" font-size="11">Le filet clair des deux nœuds du haut est la SÉLECTION (1,6 px) ; le Math,</text>
<text font-family="Segoe UI, Inter, sans-serif" x="1006" y="614" fill="#6f6f7b" font-size="11">non sélectionné, garde le filet normal. Le cadre passe DERRIÈRE, et son</text>
<text font-family="Segoe UI, Inter, sans-serif" x="1006" y="630" fill="#6f6f7b" font-size="11">BANDEAU porte seul le sens : sans titre, un cadre ne veut plus rien dire.</text>

<!-- ============ 11 · DEZOOM ============ -->
</g>
<g id="panneau_11_dezoom_trois_paliers">

<text font-family="Segoe UI, Inter, sans-serif" x="1000" y="662" fill="#F79A28" font-size="13" font-weight="600">11 · DÉZOOM — trois paliers</text>
<g id="objet_p01_17">
  <rect x="1006" y="676" width="116" height="54" rx="3" fill="#232329" stroke="#3a3a44"/>
  <rect x="1006" y="676" width="116" height="17" rx="3" fill="#4a6b8a"/>
  <text font-family="Segoe UI, Inter, sans-serif" x="1015" y="689" fill="#eef2f6" font-size="10" font-weight="600">Math</text>
  <rect x="1006" y="693" width="116" height="2" fill="#0A555F"/>
  <use href="#pinD" x="1006" y="712" fill="#5aa9d6"/><text font-family="Segoe UI, Inter, sans-serif" x="1016" y="716" fill="#c8ccd4" font-size="9">Valeur</text>
  <rect x="1060" y="706" width="44" height="12" rx="2" fill="#1b1b20" stroke="#33333c"/>
  <use href="#pinS" x="1122" y="712" fill="#5aa9d6"/>
</g>
<text font-family="Segoe UI, Inter, sans-serif" x="1006" y="748" fill="#6f6f7b" font-size="10">100 % — tout</text>
<g id="objet_p01_18">
  <rect x="1146" y="676" width="84" height="44" rx="3" fill="#232329" stroke="#3a3a44"/>
  <rect x="1146" y="676" width="84" height="15" rx="3" fill="#4a6b8a"/>
  <text font-family="Segoe UI, Inter, sans-serif" x="1154" y="687" fill="#eef2f6" font-size="9" font-weight="600">Math</text>
  <rect x="1146" y="691" width="84" height="2" fill="#0A555F"/>
  <use href="#pinD" x="1146" y="706" fill="#5aa9d6"/><use href="#pinS" x="1230" y="706" fill="#5aa9d6"/>
</g>
<text font-family="Segoe UI, Inter, sans-serif" x="1146" y="738" fill="#6f6f7b" font-size="10">55 % — les valeurs</text>
<text font-family="Segoe UI, Inter, sans-serif" x="1146" y="752" fill="#6f6f7b" font-size="10">disparaissent</text>
<g id="objet_p01_19">
  <rect x="1254" y="676" width="52" height="20" rx="2" fill="#4a6b8a" stroke="#3a3a44"/>
  <rect x="1254" y="692" width="52" height="4" fill="#0A555F"/>
</g>
<text font-family="Segoe UI, Inter, sans-serif" x="1254" y="716" fill="#6f6f7b" font-size="10">25 % — un</text>
<text font-family="Segoe UI, Inter, sans-serif" x="1254" y="730" fill="#6f6f7b" font-size="10">rectangle de la</text>
<text font-family="Segoe UI, Inter, sans-serif" x="1254" y="744" fill="#6f6f7b" font-size="10">CATÉGORIE</text>

<!-- ============ 12 · CATEGORIES ============ -->
</g>
<g id="panneau_12_en_tete_categorie">

<text font-family="Segoe UI, Inter, sans-serif" x="1360" y="368" fill="#F79A28" font-size="13" font-weight="600">12 · EN-TÊTE = CATÉGORIE</text>
<g id="objet_p01_20" font-size="10.5">
  <rect x="1366" y="384" width="150" height="19" rx="2" fill="#2a6b6b"/><text font-family="Segoe UI, Inter, sans-serif" x="1376" y="397" fill="#e2f2f2">surface / BSDF</text>
  <rect x="1366" y="408" width="150" height="19" rx="2" fill="#8a6b2a"/><text font-family="Segoe UI, Inter, sans-serif" x="1376" y="421" fill="#f6eddc">texture · couleur</text>
  <rect x="1366" y="432" width="150" height="19" rx="2" fill="#4a6b8a"/><text font-family="Segoe UI, Inter, sans-serif" x="1376" y="445" fill="#eef2f6">outillage · maths</text>
  <rect x="1366" y="456" width="150" height="19" rx="2" fill="#0A555F"/><text font-family="Segoe UI, Inter, sans-serif" x="1376" y="469" fill="#dff0f2">entrée / contexte</text>
  <rect x="1366" y="480" width="150" height="19" rx="2" fill="#8a5a2a"/><text font-family="Segoe UI, Inter, sans-serif" x="1376" y="493" fill="#f6ecdf">flot · instruction</text>
  <rect x="1366" y="504" width="150" height="19" rx="2" fill="#6b4a8a"/><text font-family="Segoe UI, Inter, sans-serif" x="1376" y="517" fill="#eee2f6">variable · objet</text>
  <rect x="1366" y="528" width="150" height="19" rx="2" fill="#F79A28"/><text font-family="Segoe UI, Inter, sans-serif" x="1376" y="541" fill="#2a1a08">sortie du graphe</text>
  <rect x="1366" y="552" width="150" height="19" rx="2" fill="#8a3a30"/><text font-family="Segoe UI, Inter, sans-serif" x="1376" y="565" fill="#f6dedb">erreur</text>
</g>
<text font-family="Segoe UI, Inter, sans-serif" x="1366" y="592" fill="#e0a96c" font-size="11">⚠ « unique » retiré : il existe</text>
<text font-family="Segoe UI, Inter, sans-serif" x="1366" y="608" fill="#6f6f7b" font-size="11">un SECOND puits, Named Output,</text>
<text font-family="Segoe UI, Inter, sans-serif" x="1366" y="624" fill="#6f6f7b" font-size="11">N par graphe (§17 C7).</text>
<text font-family="Segoe UI, Inter, sans-serif" x="1366" y="648" fill="#6f6f7b" font-size="11">Et ces couleurs n'ont aujourd'hui</text>
<text font-family="Segoe UI, Inter, sans-serif" x="1366" y="664" fill="#6f6f7b" font-size="11">AUCUNE source dans le modèle —</text>
<text font-family="Segoe UI, Inter, sans-serif" x="1366" y="680" fill="#6f6f7b" font-size="11">voir le bloc rouge (§17.4).</text>

<!-- ============ NOTES ============ -->
<g id="objet_p01_21">
  <rect x="34" y="790" width="1610" height="150" rx="4" fill="#1d1d22" stroke="#33333c"/>
  <text font-family="Segoe UI, Inter, sans-serif" x="52" y="814" fill="#F79A28" font-size="13" font-weight="600">⚠ LES PRISES SONT REDESSINÉES — mesurées dans ton editeur_nodal.sketch, pas estimées</text>
  <text font-family="Segoe UI, Inter, sans-serif" x="52" y="838" fill="#c8ccd4" font-size="12">1 · Ton nœud donne : en-tête 126,64 · prise de donnée 17,27 × 63,32 · prise d'exécution 44,43 × 51,83 · filet d'exécution 11,00.</text>
  <text font-family="Segoe UI, Inter, sans-serif" x="52" y="860" fill="#c8ccd4" font-size="12">2 · Donc la prise de donnée fait EXACTEMENT la moitié de l'en-tête (63,32 / 126,64 = 0,500) et son ratio vaut 1 : 3,67. Le texte « 1:3,7 » était juste ; c'est le DESSIN qui ne l'était pas.</text>
  <text font-family="Segoe UI, Inter, sans-serif" x="52" y="882" fill="#c8ccd4" font-size="12">3 · La prise d'exécution vaut 0,41 × l'en-tête : elle est PLUS COURTE que celle de donnée, et c'est elle seule qui entre dans le corps (chez toi : 10,7 dehors, 33,7 dedans).</text>
  <text font-family="Segoe UI, Inter, sans-serif" x="52" y="904" fill="#c8ccd4" font-size="12">4 · Ici l'en-tête fait 21 px et la planche dessine à 2,1 × : la donnée sort à 6 × 22, l'exécution à 15,5 × 18 — et 6 × 22 est EXACTEMENT ce que les six autres planches dessinaient déjà.</text>
  <text font-family="Segoe UI, Inter, sans-serif" x="52" y="926" fill="#e06c6c" font-size="12">5 · ❌ Ce que la v3 montrait : 10 × 12, soit un CARRÉ de ratio 1 : 1,2, sous un texte qui annonçait 1 : 3,7. Les textes avaient été corrigés dans la nuit, les formes non.</text>
</g>
<g id="objet_p01_22">
  <rect x="34" y="956" width="1610" height="126" rx="4" fill="#1d1d22" stroke="#3a3a2a"/>
  <text font-family="Segoe UI, Inter, sans-serif" x="52" y="980" fill="#F79A28" font-size="13" font-weight="600">Les quatre autres corrections du 23/08, et d'où vient chacune</text>
  <text font-family="Segoe UI, Inter, sans-serif" x="52" y="1002" fill="#c8ccd4" font-size="12">6 · Panneau 6 — « les arrêts SONT des prises » était faux. Mesuré dans NkMatGraphCheck (§17 C1) : deux prises en tout (fac, color) ; les arrêts sont une PROPRIÉTÉ plafonnée à 32, donc non branchables.</text>
  <text font-family="Segoe UI, Inter, sans-serif" x="52" y="1024" fill="#c8ccd4" font-size="12">7 · Panneau 10 — le cadre est enfin celui que tu as validé le 22/08 (double filet, bandeau de 20 px, compteur à droite), et il n'est plus orange : l'orange est réservé au lasso depuis la planche 07.</text>
  <text font-family="Segoe UI, Inter, sans-serif" x="52" y="1046" fill="#c8ccd4" font-size="12">8 · Panneau 10 — « cadre de groupe » était un contresens : un CADRE annote et n'a aucun effet ; un GROUPE abstrait N nœuds en un seul, avec des prises. Ce panneau ne montre que le cadre.</text>
  <text font-family="Segoe UI, Inter, sans-serif" x="52" y="1068" fill="#c8ccd4" font-size="12">9 · Panneau 12 — la sortie n'est plus dite « unique ». ✅ Et une vérification qui a INFIRMÉ un reproche : aucun nœud du panneau 10 ne portait la teinte du cadre — ce filet clair est la sélection.</text>
</g>
<g id="objet_p01_23">
  <rect x="34" y="1098" width="1610" height="172" rx="4" fill="#1d1d22" stroke="#3a2a2a"/>
  <text font-family="Segoe UI, Inter, sans-serif" x="52" y="1122" fill="#c4483a" font-size="13" font-weight="600">🔴 Toujours pas tranché — repris du § 13 de la spécification, limité à ce que CETTE planche dessine</text>
  <text font-family="Segoe UI, Inter, sans-serif" x="52" y="1144" fill="#c8ccd4" font-size="12">· la LARGEUR du nœud — fixe, adaptative ou redimensionnable ? (§ 2.3) Une largeur libre doit être SÉRIALISÉE : ce n'est pas un choix de dessin.</text>
  <text font-family="Segoe UI, Inter, sans-serif" x="52" y="1166" fill="#c8ccd4" font-size="12">· le FIL de dictionnaire — pointillé (mais collision avec le fil qu'on tire) ou triple trait ? (§ 5.3) C'est le seul point du dictionnaire qui reste ouvert : sa prise et son nœud sont écrits.</text>
  <text font-family="Segoe UI, Inter, sans-serif" x="52" y="1188" fill="#c8ccd4" font-size="12">· le CHAMP DE SAISIE — plus clair (mesuré sur ta référence) ou plus sombre (ce que dessine A9 aujourd'hui) ? (§ 1.1) ⚠ ce point contredit un document déjà écrit.</text>
  <text font-family="Segoe UI, Inter, sans-serif" x="52" y="1210" fill="#c8ccd4" font-size="12">· le SENS DE LECTURE — tout est écrit pour un graphe horizontal, comme cette planche. Rien ne l'interdit formellement, rien ne le prévoit non plus (§ 15.3).</text>
  <text font-family="Segoe UI, Inter, sans-serif" x="52" y="1232" fill="#c8ccd4" font-size="12">· QUI S'ALIGNE SUR QUI — les planches, ou ton nœud de référence ? Ton dessin est une maquette à 6 × et l'en-tête de 21 px est déjà juste ; il reste à le dire (§ 13, point 20).</text>
  <text font-family="Segoe UI, Inter, sans-serif" x="52" y="1254" fill="#c8ccd4" font-size="12">· les COULEURS du panneau 12 — et c'est pire qu'une proposition : NkMatNodeProto n'a AUCUN champ de catégorie (§ 17.4). Cette couleur, seul signal qui survit à 25 %, n'a aucune source.</text>
</g>

<text font-family="Segoe UI, Inter, sans-serif" x="34" y="1296" fill="#7fb77e" font-size="11">✅ NE SONT PLUS dans ce bloc, et c'est un contrôle qui aurait dû le dire : le nœud de groupe replié (tranché le 22/08, § 7.6) · le survol (D7, § 11.4) · la minicarte (E3, reportée avec son critère de déclenchement).</text>
<text font-family="Segoe UI, Inter, sans-serif" x="34" y="1316" fill="#6f6f7b" font-size="11">Fond #17171b · corps #232329 · filet #33333c · texte #c8ccd4, secondaire #7a7a85 · orange Rihen #F79A28 · pétrole Rihen #0A555F · teinte de cadre #4E9A5A</text>
<text font-family="Segoe UI, Inter, sans-serif" x="34" y="1332" fill="#6f6f7b" font-size="11">⚠ PLANCHE D'ÉTUDE — prises dessinées à 2,1 × leur échelle relative (donnée 6 × 22, exécution 15,5 × 18). Les RATIOS font foi, jamais les pixels : 0,500 et 0,409 de la hauteur d'en-tête.</text>
</g>
</svg>
