<?xml version="1.0" encoding="UTF-8" standalone="no"?><!DOCTYPE svg PUBLIC "-//W3C//DTD SVG 1.1//EN" "http://www.w3.org/Graphics/SVG/1.1/DTD/svg11.dtd"><svg width="100%" height="100%" viewBox="0 0 4267 2800" version="1.1" xmlns="http://www.w3.org/2000/svg" xmlns:xlink="http://www.w3.org/1999/xlink" xml:space="preserve" xmlns:serif="http://www.serif.com/" style="fill-rule:evenodd;clip-rule:evenodd;stroke-linejoin:round;stroke-miterlimit:2;"><g><path d="M2465.354,1635.921c26.623,-98.994 52.769,-195.094 78.492,-291.307c2.845,-10.643 4.696,-23.148 16.013,-25.882c51.409,-12.414 102.181,-28.756 157.01,-31.986c6.503,21.412 -4.774,36.889 -9.831,52.993c-33.396,106.333 -74.581,210.147 -103.163,318.035c-6.981,26.352 -14.364,52.869 -13.008,80.531c1.258,25.659 16.195,33.318 35.013,17.733c39.962,-33.098 78.293,-66.148 84.489,-125.283c17.41,-166.17 141.428,-305.025 301.408,-338.983c83.6,-17.745 161.158,-6.728 217.322,65.3c8.122,0.777 9.932,-4.254 11.293,-8.474c20.279,-62.895 60.836,-94.254 128.779,-83.242c33.267,5.392 49.733,-10.424 58.97,-41.434c10.811,-36.298 24.96,-71.648 38.646,-107.028c11.865,-30.675 33.569,-50.978 66.279,-59.071c38.734,-9.583 75.628,-26.892 118.076,-30.328c6.436,28.913 -9.194,50.546 -16.335,73.199c-13.9,44.097 -30.5,87.391 -47.26,130.521c-10.143,26.104 -1.22,35.374 24.854,33.872c63.944,-3.685 127.918,-6.854 191.842,-10.837c20.821,-1.297 41.566,-5.44 64.24,-0.327c-3.658,28.054 -23.035,38.377 -40.804,48.993c-51.424,30.721 -110.036,35.505 -167.36,44.436c-21.076,3.283 -42.961,9.04 -63.528,6.367c-46.394,-6.03 -60.843,19.423 -72.128,57.817c-26.724,90.917 -59.787,180.039 -74.029,274.309c-10.96,72.547 25.54,103.062 96.466,79.595c83.675,-27.685 146.697,-85.818 209.397,-144.245c6.543,-6.097 10.208,-16.607 22.579,-15.831c7.126,17.531 -5.403,30.014 -13.131,41.68c-81.157,122.508 -185.844,209.457 -340.646,213.464c-78.02,2.019 -123.845,-45.017 -124.351,-123.96c-0.609,-95.009 28.377,-184.608 53.6,-274.765c6.071,-21.699 11.969,-43.491 19.247,-64.795c7.932,-23.222 0.011,-35.423 -23.835,-34.369c-34.101,1.507 -68.106,5.179 -106.537,8.281c7.331,48.776 17.057,93.431 11.725,139.807c-18.331,159.434 -152.923,372.107 -397.961,350.361c-54.833,-4.866 -95.328,-33.427 -123.06,-80.479c-6.532,-11.083 -12.307,-22.611 -18.646,-34.333c-19.663,6.961 -28.992,22.67 -40.597,35.639c-26.403,29.505 -56.199,54.677 -92.344,71.355c-36.526,16.853 -73.484,21.183 -108.132,-4.008c-34.069,-24.77 -38.733,-62.122 -33.829,-99.389c4.926,-37.435 15.867,-74.078 24.774,-113.93m629.223,-170.843c-0.577,-41.357 -9.83,-79.16 -52.635,-96.037c-34.788,-13.716 -61,8.221 -80.145,31.952c-81.576,101.115 -106.358,217.626 -81.563,343.737c9.173,46.657 53.484,61.577 94.487,36.893c27.142,-16.34 45.715,-41.183 61.219,-68.065c43.142,-74.804 61.884,-155.719 58.637,-248.479Z" style="fill:url(#_Linear1);fill-rule:nonzero;"/><path d="M1572.015,2047.473c-109.137,42.726 -220.876,64.638 -334.404,74.906c-203.908,18.443 -397.303,-16.334 -574.043,-125c-87.129,-53.57 -163.367,-118.475 -214.582,-208.856c-55.147,-97.32 -66.899,-199.414 -27.85,-304.826c27.241,-73.536 84.727,-112.457 160.222,-125.152c89.067,-14.977 164.27,9.572 220.717,82.723c9.856,12.773 15.278,29.846 34.763,34.69c18.101,-13.878 6.535,-27.446 -1.211,-39.667c-83.795,-132.209 -262.374,-153.095 -353.388,-59.562c-4.714,4.845 -9.705,10.887 -21.052,6.28c0.653,-21.278 17.124,-34.826 28.897,-49.487c28.313,-35.258 60.138,-67.065 99.039,-91.291c38.384,-23.904 61.292,-62.454 71.733,-103.042c9.401,-36.544 -15.973,-69.782 -37.944,-99.364c-27.57,-37.122 -55.832,-73.752 -84.631,-109.929c-15.878,-19.946 -2.837,-33.084 9.164,-46.201c67.307,-73.567 148.321,-125.586 244.883,-151.603c33.077,-8.912 67.132,-14.248 100.81,-20.861c17.004,-3.339 32.699,0.484 36.69,18.988c8.907,41.299 37.513,70.793 59.116,104.508c19.87,31.011 40.201,61.455 42.818,100.196c1.426,21.119 21.19,30.542 34.37,43.606c22.031,21.837 41.659,41.454 19.084,76.435c-9.378,14.532 -7.685,36.671 7.129,56.544c14.66,-19.99 29.838,-37.819 41.708,-57.63c13.582,-22.665 -2.785,-41.013 -15.199,-57.179c-7.587,-9.881 -12.657,-18.58 -5.631,-28.152c17.475,-23.808 27.101,-57.745 53.381,-69.649c31.858,-14.431 44.987,-39.699 60.556,-65.794c4.116,-6.899 7.566,-15.217 17.584,-15.686c12.6,4.036 1.455,21.893 17.844,25.913c21.794,-14.316 22.164,-36.165 18.721,-59.703c-16.498,-4.894 -35.279,12.993 -46.89,-7.271c-5.819,-10.156 -3.172,-21.001 5.208,-29.392c15.657,-15.676 30.754,-2.729 47.397,2.557c14.386,-17.385 8.911,-27.066 -11.175,-31.613c-17.081,-3.867 -30.022,-12.544 -25.596,-31.531c4.376,-18.774 20.234,-22.352 36.841,-17.435c19.354,5.731 26.477,-5.192 30.165,-20.369c3.906,-16.077 6.104,-32.563 9.259,-48.83c4.478,-23.087 17.525,-38.482 40.75,-44.371c19.367,-4.911 35.552,2.378 48.484,15.606c16.054,16.423 16.128,35.741 6.238,55.94c-6.256,12.777 -11.711,25.972 -17.002,39.189c-6.586,16.451 -4.755,29.762 13.558,38.114c16.364,7.463 28.836,19.61 21.35,39.063c-6.707,17.429 -21.841,19.449 -38.78,14.267c-8.355,-2.556 -17.901,-2.206 -19.879,8.612c-1.987,10.865 7.297,12.907 15.547,15.517c17.444,5.518 26.518,17.685 19.177,35.292c-8.529,20.456 -24.379,19.318 -41.095,9.043c-9.836,-6.046 -18.442,-4.722 -23.743,5.937c-5.518,11.092 -1.275,18.009 10.661,20.804c20.606,4.825 39.424,14.591 26.931,38.592c-14.387,27.64 -33.491,9.219 -52.679,-3.169c-32.296,44.426 -28.112,99.612 -49.3,149.062c20.453,7.819 33.162,17.495 28.304,43.387c-4.842,25.804 -17.694,28.873 -39.213,29.395c-12.054,0.293 -13.992,14.584 -16.346,24.916c-12.369,54.287 -25.243,108.476 -36.372,163.02c-4.723,23.146 -14.728,41.564 -32.581,56.852c-16.35,-13.45 -11.715,-31.903 -15.879,-47.227c-14.214,-52.299 -50.862,-70.571 -99.832,-49.867c-64.382,27.221 -117.963,62.073 -118.4,142.834c-0.064,11.75 -8.716,24.715 -16.304,34.964c-68.518,92.553 -155.097,164.571 -258.167,223.533c1.511,-23.892 19.958,-33.025 31.846,-45.576c41.528,-43.842 45.097,-71.23 14.405,-123.55c-25.845,-44.058 -61.3,-76.703 -112.989,-84.572c-130.174,-19.818 -181.881,89.165 -164.922,184.192c19.132,107.2 79.574,189.887 162.255,256.019c138.838,111.049 300.243,162.78 476.328,176.176c165.127,12.562 326.498,-9.075 487.002,-44.091c12.19,-2.66 24.676,-10.272 38.966,-0.278c-3.912,28.332 -25.796,46.343 -42.819,70.103m-739.46,-737.622c30.038,29.272 60.076,58.545 89.622,87.337c5.159,-4.847 7.979,-6.198 8.414,-8.094c13.962,-60.914 34.554,-116.567 102.962,-136.681c7.029,-2.067 11.091,-8.963 8.732,-17.293c-3.097,-10.936 -11.343,-15.851 -21.692,-14.058c-28.878,5.004 -58.119,-14.101 -84.223,-4.702c-29.797,10.729 -21.754,49.843 -38.677,72.193c-0.511,0.674 -2.063,0.56 -3.13,0.813c-25.797,-58.95 4.786,-109.931 65.535,-109.265c9.501,0.104 19.003,0.199 28.505,0.167c29.223,-0.099 44.952,-10.314 46.665,-43.938c1.649,-32.364 -7.135,-67.126 7.606,-96.787c9.11,-18.33 5.96,-27.723 -6.022,-39.784c-22.871,-23.022 -39.708,-47.039 -41.335,-83.053c-1.571,-34.764 -27.479,-47.379 -61.732,-34.596c-87.396,32.617 -167.187,79.167 -240.516,136.751c-16.504,12.961 -24.686,30.372 -16.14,50.355c18.987,44.396 22.761,85.313 -12.488,125.06c-18.551,20.919 -9.305,37 17.901,41.838c55.305,9.836 102.392,36.566 150.011,73.735m355.309,-236.526c-6.959,21.691 -6.959,21.691 4.469,40.903c14.953,-47.797 33.614,-92.541 42.873,-145.74c-20.83,14.618 -27.705,32.438 -30.877,48.212c-3.593,17.863 0.75,37.269 -16.465,56.625Z" style="fill:url(#_Linear2);fill-rule:nonzero;"/><path d="M1452.588,2197.727c129.16,-57.285 194.902,-165.5 244.268,-286.85c13.079,-32.151 28.448,-64.601 28.012,-101.059c-20.679,-6.031 -31.466,7.273 -44.033,14.748c-87.836,52.247 -178.771,91.513 -284.754,87.17c-118.26,-4.847 -210.298,-93.322 -220.359,-210.992c-15.841,-185.277 48.603,-343.406 163.136,-482.558c128.521,-156.146 288.006,-267.805 489.082,-311.48c60.546,-13.151 121.775,-17.427 183.597,-5.113c112.693,22.447 161.548,139.55 92.728,232.471c-54.209,73.193 -134.244,92.896 -221.486,89.501c-4.481,-0.175 -9.035,-2.794 -13.19,-4.971c-1.723,-0.902 -2.486,-3.635 -4.049,-6.113c3.755,-14.477 18.61,-16.781 28.497,-24.186c38.191,-28.603 68.129,-62.049 76.268,-111.455c7.706,-46.773 -22.428,-87.875 -69.805,-92.659c-62.76,-6.338 -120.521,9.705 -173.186,42.628c-194.478,121.576 -312.381,296.687 -360.897,519.855c-6.604,30.375 -8.355,60.956 -7.936,91.927c1.475,108.789 68.293,169.264 174.715,152.747c92.994,-14.433 170.084,-61.847 226.474,-136.042c31.088,-40.904 32.529,-95.854 41.797,-145.705c3.772,-20.29 -17.579,-23.278 -32.301,-25.118c-31.773,-3.973 -63.842,-5.532 -95.74,-8.599c-8.649,-0.831 -19.557,2.886 -26.26,-12.82c28.617,-10.462 56.674,-21.076 84.975,-30.997c78.365,-27.47 156.795,-54.753 235.271,-81.903c39.827,-13.779 57.24,0.753 48.228,42.182c-43.328,199.18 -106.199,391.695 -208.493,568.883c-67.062,116.16 -153.262,214.759 -284.729,262.165c-55.415,19.982 -112.111,30.928 -170.993,15.503c-7.974,-2.089 -16.312,-3.09 -23.808,-14.416c41.826,-8.744 84.537,-7.395 124.971,-26.742Z" style="fill:url(#_Linear3);fill-rule:nonzero;"/><path d="M2280.97,1471.937c-72.208,93.781 -119.132,196.452 -137.403,310.871c-9.228,57.787 -63.219,80.511 -115.894,68.74c-28.817,-6.44 -43.839,-32.759 -35.502,-67.468c10.762,-44.808 26.917,-88.294 38.697,-132.891c26.554,-100.532 61.19,-199.566 59.718,-305.628c-0.207,-14.894 1.38,-29.051 21.46,-30.228c36.658,-2.149 73.311,-4.436 109.932,-7.123c27.294,-2.003 35.244,10.834 32.648,36.643c-2.394,23.792 -17.336,46.47 -6.885,78.502c15.502,-17.4 27.282,-31.462 39.947,-44.675c32.123,-33.513 65.119,-66.098 111.827,-78.86c54.625,-14.926 91.448,12.901 92.704,69.062c1.306,58.425 -21.44,105.817 -64.755,143.981c-18.509,16.309 -39.701,24.354 -66.447,20.887c-2.759,-23.539 12.42,-41.711 12.943,-62.606c0.411,-16.428 4.66,-34.765 -13.315,-44.652c-17.363,-9.551 -32.54,0.839 -45.491,10.972c-11.996,9.385 -21.782,21.593 -34.183,34.474Z" style="fill:url(#_Linear4);fill-rule:nonzero;"/><path d="M1127.898,1714.059c10.87,46.989 2.455,93.156 6.734,138.644c-28.595,31.581 -74.154,25.795 -111.945,37.18c-8.759,44.251 22.011,59.725 52.487,74.502c-13.714,14.663 -23.419,5.624 -32.156,2.389c-104.673,-38.758 -197.256,-184.856 -125.87,-312.601c35.576,-63.664 69.924,-118.262 163.054,-116.33c-31.616,-18.834 -29.917,-37.26 -21.844,-55.266c13.772,-30.715 85.319,-77.429 118.266,-76.554c-6.764,43.563 -25.988,82.949 -38.99,123.856c-3.477,10.941 -6.086,20.077 -6.815,31.777c-2.489,39.922 4.121,80.71 -9.611,119.697c-3.999,11.355 2.941,20.574 6.689,32.706Z" style="fill:url(#_Linear5);fill-rule:nonzero;"/><path d="M2481.963,1929.019c58.33,15.501 112.911,32.286 158.826,72.324c-265.605,-61.538 -529.738,-43.818 -793.829,10.673c1.539,-45.584 30.159,-83.704 66.783,-88.228c188.567,-23.288 377.243,-39.438 568.221,5.231Z" style="fill:url(#_Linear6);fill-rule:nonzero;"/><path d="M2694.293,1014.416c54.602,-23.485 81.329,-28.508 117.43,-19.924c-30.105,58.551 -52.554,119.388 -89.461,172.757c-10.736,15.525 -33.968,15.203 -52.29,19.016c-37.408,7.784 -74.2,22.616 -116.157,15.305c10.445,-91.518 58.413,-150.447 140.478,-187.153Z" style="fill:url(#_Linear7);fill-rule:nonzero;"/><path d="M3611.005,932.342c-15.936,39.173 -42.408,60.135 -82.786,58.942c-32.644,-0.965 -55.893,-18.829 -69.895,-47.387c-15.17,-30.941 -7.159,-68.454 17.503,-91.503c26.308,-24.587 67.189,-28.998 99.245,-10.71c30.224,17.244 44.035,50.387 35.933,90.657Z" style="fill:url(#_Linear8);fill-rule:nonzero;"/><path d="M3308.183,1056.092c-35.69,-12.942 -51.993,-37.676 -49.153,-71.855c2.455,-29.548 20.108,-50.307 49.522,-58.247c30.47,-8.225 56.435,-0.006 75.149,25.917c15.836,21.937 18.786,45.97 4.942,69.942c-17.301,29.958 -43.412,42.069 -80.46,34.244Z" style="fill:url(#_Linear9);fill-rule:nonzero;"/><path d="M3228.547,1057.251c14.02,29.374 9.169,53.481 -13.833,71.812c-18.017,14.359 -38.667,15.894 -59.281,3.305c-21.602,-13.192 -29.66,-32.459 -26.14,-57.024c3.004,-20.964 15.785,-33.139 35.306,-39.74c25.676,-8.682 46.03,-1.283 63.948,21.646Z" style="fill:url(#_Linear10);fill-rule:nonzero;"/><path d="M1337.038,993.009c8.172,15.684 3.939,25.098 -11.088,26.772c-10.967,1.221 -18.444,-6.556 -16.974,-17.094c2.196,-15.747 13.467,-16.655 28.062,-9.678Z" style="fill:url(#_Linear11);fill-rule:nonzero;"/></g><defs><linearGradient id="_Linear1" x1="0" y1="0" x2="1" y2="0" gradientUnits="userSpaceOnUse" gradientTransform="matrix(63.450568,-1560.696974,1560.696974,63.450568,1922.68286,2250.216696)"><stop offset="0" style="stop-color:#c28204;stop-opacity:1"/><stop offset="0.19" style="stop-color:#cb8c11;stop-opacity:1"/><stop offset="0.4" style="stop-color:#d3961e;stop-opacity:1"/><stop offset="1" style="stop-color:#d79a23;stop-opacity:1"/></linearGradient><linearGradient id="_Linear2" x1="0" y1="0" x2="1" y2="0" gradientUnits="userSpaceOnUse" gradientTransform="matrix(63.450568,-1560.696974,1560.696974,63.450568,1922.68286,2250.216696)"><stop offset="0" style="stop-color:#c28204;stop-opacity:1"/><stop offset="0.19" style="stop-color:#cb8c11;stop-opacity:1"/><stop offset="0.4" style="stop-color:#d3961e;stop-opacity:1"/><stop offset="1" style="stop-color:#d79a23;stop-opacity:1"/></linearGradient><linearGradient id="_Linear3" x1="0" y1="0" x2="1" y2="0" gradientUnits="userSpaceOnUse" gradientTransform="matrix(63.450568,-1560.696974,1560.696974,63.450568,1922.68286,2250.216696)"><stop offset="0" style="stop-color:#c28204;stop-opacity:1"/><stop offset="0.19" style="stop-color:#cb8c11;stop-opacity:1"/><stop offset="0.4" style="stop-color:#d3961e;stop-opacity:1"/><stop offset="1" style="stop-color:#d79a23;stop-opacity:1"/></linearGradient><linearGradient id="_Linear4" x1="0" y1="0" x2="1" y2="0" gradientUnits="userSpaceOnUse" gradientTransform="matrix(63.450568,-1560.696974,1560.696974,63.450568,1922.68286,2250.216696)"><stop offset="0" style="stop-color:#c28204;stop-opacity:1"/><stop offset="0.19" style="stop-color:#cb8c11;stop-opacity:1"/><stop offset="0.4" style="stop-color:#d3961e;stop-opacity:1"/><stop offset="1" style="stop-color:#d79a23;stop-opacity:1"/></linearGradient><linearGradient id="_Linear5" x1="0" y1="0" x2="1" y2="0" gradientUnits="userSpaceOnUse" gradientTransform="matrix(63.450568,-1560.696974,1560.696974,63.450568,1922.68286,2250.216696)"><stop offset="0" style="stop-color:#c28204;stop-opacity:1"/><stop offset="0.19" style="stop-color:#cb8c11;stop-opacity:1"/><stop offset="0.4" style="stop-color:#d3961e;stop-opacity:1"/><stop offset="1" style="stop-color:#d79a23;stop-opacity:1"/></linearGradient><linearGradient id="_Linear6" x1="0" y1="0" x2="1" y2="0" gradientUnits="userSpaceOnUse" gradientTransform="matrix(63.450568,-1560.696974,1560.696974,63.450568,1922.68286,2250.216696)"><stop offset="0" style="stop-color:#c28204;stop-opacity:1"/><stop offset="0.19" style="stop-color:#cb8c11;stop-opacity:1"/><stop offset="0.4" style="stop-color:#d3961e;stop-opacity:1"/><stop offset="1" style="stop-color:#d79a23;stop-opacity:1"/></linearGradient><linearGradient id="_Linear7" x1="0" y1="0" x2="1" y2="0" gradientUnits="userSpaceOnUse" gradientTransform="matrix(63.450568,-1560.696974,1560.696974,63.450568,1922.68286,2250.216696)"><stop offset="0" style="stop-color:#c28204;stop-opacity:1"/><stop offset="0.19" style="stop-color:#cb8c11;stop-opacity:1"/><stop offset="0.4" style="stop-color:#d3961e;stop-opacity:1"/><stop offset="1" style="stop-color:#d79a23;stop-opacity:1"/></linearGradient><linearGradient id="_Linear8" x1="0" y1="0" x2="1" y2="0" gradientUnits="userSpaceOnUse" gradientTransform="matrix(63.450568,-1560.696974,1560.696974,63.450568,1922.68286,2250.216696)"><stop offset="0" style="stop-color:#c28204;stop-opacity:1"/><stop offset="0.19" style="stop-color:#cb8c11;stop-opacity:1"/><stop offset="0.4" style="stop-color:#d3961e;stop-opacity:1"/><stop offset="1" style="stop-color:#d79a23;stop-opacity:1"/></linearGradient><linearGradient id="_Linear9" x1="0" y1="0" x2="1" y2="0" gradientUnits="userSpaceOnUse" gradientTransform="matrix(63.450568,-1560.696974,1560.696974,63.450568,1922.68286,2250.216696)"><stop offset="0" style="stop-color:#c28204;stop-opacity:1"/><stop offset="0.19" style="stop-color:#cb8c11;stop-opacity:1"/><stop offset="0.4" style="stop-color:#d3961e;stop-opacity:1"/><stop offset="1" style="stop-color:#d79a23;stop-opacity:1"/></linearGradient><linearGradient id="_Linear10" x1="0" y1="0" x2="1" y2="0" gradientUnits="userSpaceOnUse" gradientTransform="matrix(63.450568,-1560.696974,1560.696974,63.450568,1922.68286,2250.216696)"><stop offset="0" style="stop-color:#c28204;stop-opacity:1"/><stop offset="0.19" style="stop-color:#cb8c11;stop-opacity:1"/><stop offset="0.4" style="stop-color:#d3961e;stop-opacity:1"/><stop offset="1" style="stop-color:#d79a23;stop-opacity:1"/></linearGradient><linearGradient id="_Linear11" x1="0" y1="0" x2="1" y2="0" gradientUnits="userSpaceOnUse" gradientTransform="matrix(63.450568,-1560.696974,1560.696974,63.450568,1922.68286,2250.216696)"><stop offset="0" style="stop-color:#c28204;stop-opacity:1"/><stop offset="0.19" style="stop-color:#cb8c11;stop-opacity:1"/><stop offset="0.4" style="stop-color:#d3961e;stop-opacity:1"/><stop offset="1" style="stop-color:#d79a23;stop-opacity:1"/></linearGradient></defs></svg>